<svg id="Layer_1" data-name="Layer 1" xmlns="http://www.w3.org/2000/svg" xmlns:xlink="http://www.w3.org/1999/xlink" viewBox="0 0 838.37 516.04">
  <defs>
    <style>
      .cls-1 {
        fill: none;
      }

      .cls-2 {
        fill: #009e99;
      }

      .cls-3 {
        clip-path: url(#clip-path);
      }

      .cls-4 {
        fill: url(#linear-gradient);
      }

      .cls-5 {
        clip-path: url(#clip-path-2);
      }

      .cls-6 {
        fill: url(#linear-gradient-2);
      }

      .cls-7 {
        fill: url(#linear-gradient-3);
      }

      .cls-8 {
        fill: url(#linear-gradient-4);
      }

      .cls-9 {
        fill: url(#linear-gradient-5);
      }

      .cls-10 {
        fill: url(#linear-gradient-6);
      }

      .cls-11 {
        fill: url(#linear-gradient-7);
      }

      .cls-12 {
        fill: url(#linear-gradient-8);
      }

      .cls-13 {
        fill: url(#linear-gradient-9);
      }

      .cls-14 {
        clip-path: url(#clip-path-3);
      }

      .cls-15 {
        fill: url(#linear-gradient-10);
      }

      .cls-16 {
        clip-path: url(#clip-path-4);
      }

      .cls-17 {
        fill: url(#linear-gradient-11);
      }

      .cls-18 {
        fill: url(#linear-gradient-12);
      }

      .cls-19 {
        fill: url(#linear-gradient-13);
      }

      .cls-20 {
        fill: url(#linear-gradient-14);
      }

      .cls-21 {
        fill: url(#linear-gradient-15);
      }

      .cls-22 {
        fill: url(#linear-gradient-16);
      }

      .cls-23 {
        fill: url(#linear-gradient-17);
      }

      .cls-24 {
        fill: url(#linear-gradient-18);
      }

      .cls-25 {
        fill: url(#linear-gradient-19);
      }

      .cls-26 {
        fill: url(#linear-gradient-20);
      }

      .cls-27 {
        fill: url(#linear-gradient-21);
      }

      .cls-28 {
        clip-path: url(#clip-path-5);
      }

      .cls-29 {
        fill: url(#linear-gradient-22);
      }
    </style>
    <clipPath id="clip-path" transform="translate(-923.4 -82.13)">
      <path class="cls-1" d="M1004.11,212.73c1.16,0,44-.07,63.71,0,26.62.13,48.2,16.76,54.69,42,5.68,22.05-3.73,49-23,61-8.92,5.56-16.35,8.67-28.54,9.85-3.72.58-29.14,1-38.09,1h-3.49v69.51h-18.48v-3.65q0-82.87.07-165.76C1010.93,219,1005.39,213.87,1004.11,212.73Zm25.25,100.54c14.23,0,28.14.3,42-.11,10.37-.3,18.87-5.14,25.23-13.34,20.44-26.32,6.62-66.37-29.27-72.55-12.17-2.1-24.95-.67-37.45-.84-.15,0-.3.21-.53.37Z"/>
    </clipPath>
    <linearGradient id="linear-gradient" x1="-7.39" y1="78.37" x2="402.27" y2="622.04" gradientUnits="userSpaceOnUse">
      <stop offset="0" stop-color="#f47c44"/>
      <stop offset="0.06" stop-color="#83381b"/>
      <stop offset="0.11" stop-color="#f47c44"/>
      <stop offset="0.15" stop-color="#f68f7a"/>
      <stop offset="0.36" stop-color="#5b2211"/>
      <stop offset="0.51" stop-color="#f4763c"/>
      <stop offset="0.56" stop-color="#f69080"/>
      <stop offset="0.87" stop-color="#5b2211"/>
    </linearGradient>
    <clipPath id="clip-path-2" transform="translate(-923.4 -82.13)">
      <path class="cls-1" d="M1377.67,324.42c7.81-1.63,13.74-4.43,20.52-8.66,19.32-12.05,28.73-39,23-61-6.49-25.24-28.07-41.87-54.69-42-19.68-.09-62.55,0-63.71,0,1.28,1.14,6.82,6.3,6.82,14q-.15,82.87-.07,165.76v3.65h18.49V326.61h3.49c5.37,0,16.71-.15,25.7-.4,17.73,21.82,35.55,43.56,53.17,65.46,2.71,3.37,5.33,5.15,9.84,4.77,5.45-.47,11-.11,17.1-.11Zm-49.58-11.15V226.8c.23-.16.38-.37.54-.37,12.5.17,25.27-1.26,37.44.84,35.89,6.18,49.71,46.23,29.27,72.55-6.36,8.2-14.86,13-25.23,13.34C1356.23,313.57,1342.32,313.27,1328.09,313.27Z"/>
    </clipPath>
    <linearGradient id="linear-gradient-2" x1="318.36" y1="78.37" x2="728.02" y2="622.04" xlink:href="#linear-gradient"/>
    <linearGradient id="linear-gradient-3" x1="646.45" y1="389.84" x2="11.82" y2="121.8" gradientUnits="userSpaceOnUse">
      <stop offset="0" stop-color="#f47c44"/>
      <stop offset="0.06" stop-color="#83381b"/>
      <stop offset="0.12" stop-color="#f47c44"/>
      <stop offset="0.15" stop-color="#f68f7a"/>
      <stop offset="0.18" stop-color="#f69080"/>
      <stop offset="0.26" stop-color="#3c1f0f"/>
      <stop offset="0.34" stop-color="#f4763c"/>
      <stop offset="0.39" stop-color="#f69080"/>
      <stop offset="0.45" stop-color="#7f2418"/>
      <stop offset="0.49" stop-color="#82271b"/>
      <stop offset="0.53" stop-color="#8c2f23"/>
      <stop offset="0.57" stop-color="#9e3e30"/>
      <stop offset="0.6" stop-color="#b65243"/>
      <stop offset="0.64" stop-color="#d46d5b"/>
      <stop offset="0.66" stop-color="#f18572"/>
      <stop offset="0.73" stop-color="#f68f7f"/>
      <stop offset="0.73" stop-color="#f69080"/>
      <stop offset="0.84" stop-color="#3d170c"/>
      <stop offset="0.87" stop-color="#3d1a0d"/>
      <stop offset="0.89" stop-color="#3c1f0f"/>
      <stop offset="1" stop-color="#f47c44"/>
    </linearGradient>
    <linearGradient id="linear-gradient-4" x1="655.41" y1="368.62" x2="20.78" y2="100.58" xlink:href="#linear-gradient-3"/>
    <linearGradient id="linear-gradient-5" x1="664.38" y1="347.39" x2="29.75" y2="79.35" xlink:href="#linear-gradient-3"/>
    <linearGradient id="linear-gradient-6" x1="673.34" y1="326.16" x2="38.71" y2="58.12" xlink:href="#linear-gradient-3"/>
    <linearGradient id="linear-gradient-7" x1="682.31" y1="304.93" x2="47.68" y2="36.9" xlink:href="#linear-gradient-3"/>
    <linearGradient id="linear-gradient-8" x1="691.27" y1="283.71" x2="56.64" y2="15.67" xlink:href="#linear-gradient-3"/>
    <linearGradient id="linear-gradient-9" x1="700.24" y1="262.48" x2="65.61" y2="-5.56" xlink:href="#linear-gradient-3"/>
    <clipPath id="clip-path-3" transform="translate(-923.4 -82.13)">
      <path class="cls-1" d="M1275.09,191.12h-22.81v0h-2.43c1.28,1.14,6.82,6.29,6.82,14-.06,32.64.06,127.85.06,137.41,0,6.19-1.57,7.73-3,8.78-13.35,9.56-28.07,14.28-44.82,13.37-27.31-1.49-49.4-25-49.12-52,0-3.22.18-121.59.18-121.59-16.4,0-24.55,0-25.24,0,1.29,1.14,6.83,6.29,6.83,14q-.09,49-.08,97.92h0v15.37a59.22,59.22,0,0,0,41.24,56.73c18.3,5.84,36.47,4.23,54.18-2.67,12-4.68,20.79-13.49,32.44-18.83a21,21,0,0,1,5.75-1.67v-2.55C1275.07,334.82,1275.09,191.12,1275.09,191.12Z"/>
    </clipPath>
    <linearGradient id="linear-gradient-10" x1="165.3" y1="66.9" x2="574.95" y2="610.57" xlink:href="#linear-gradient"/>
    <clipPath id="clip-path-4" transform="translate(-923.4 -82.13)">
      <path class="cls-2" d="M1095.6,134.3v3.52a11.26,11.26,0,0,0-8.55-4.31h-.91a11.67,11.67,0,0,0-9.91,6.26,11.72,11.72,0,0,0-10.36-6.26H1065a11.3,11.3,0,0,0-8.55,4.31V134.3h-3.17v18.34h-18V134.3h-3.17v18.34h-18V134.3h-3.17v18.34H1014v3.17h-3.17v18.34H1014V155.81h18v18.34h3.17V155.81h18v18.34h3.17V145.23a8.56,8.56,0,0,1,8.55-8.55h.92a8.56,8.56,0,0,1,8.55,8.55v28.92h3.17V145.23a8.55,8.55,0,0,1,8.55-8.55h.91a8.55,8.55,0,0,1,8.55,8.55v28.92h3.17V134.3Zm-60.38,21.51h-3.17v-3.17h3.17Z"/>
    </clipPath>
    <linearGradient id="linear-gradient-11" x1="1552.36" y1="517.71" x2="1552.36" y2="380.94" xlink:href="#linear-gradient"/>
    <linearGradient id="linear-gradient-12" x1="1529.14" y1="517.71" x2="1529.14" y2="380.94" xlink:href="#linear-gradient"/>
    <linearGradient id="linear-gradient-13" x1="1494.23" y1="517.71" x2="1494.23" y2="380.94" xlink:href="#linear-gradient"/>
    <linearGradient id="linear-gradient-14" x1="1509.61" y1="517.71" x2="1509.61" y2="380.94" xlink:href="#linear-gradient"/>
    <linearGradient id="linear-gradient-15" x1="1413.04" y1="517.71" x2="1413.04" y2="380.94" xlink:href="#linear-gradient"/>
    <linearGradient id="linear-gradient-16" x1="1387.84" y1="517.71" x2="1387.84" y2="380.94" xlink:href="#linear-gradient"/>
    <linearGradient id="linear-gradient-17" x1="1319.02" y1="517.71" x2="1319.02" y2="380.94" xlink:href="#linear-gradient"/>
    <linearGradient id="linear-gradient-18" x1="1364.06" y1="517.71" x2="1364.06" y2="380.94" xlink:href="#linear-gradient"/>
    <linearGradient id="linear-gradient-19" x1="1460.36" y1="517.71" x2="1460.36" y2="380.94" xlink:href="#linear-gradient"/>
    <linearGradient id="linear-gradient-20" x1="1434.79" y1="517.71" x2="1434.79" y2="380.94" xlink:href="#linear-gradient"/>
    <linearGradient id="linear-gradient-21" x1="1341.86" y1="517.71" x2="1341.86" y2="380.94" xlink:href="#linear-gradient"/>
    <clipPath id="clip-path-5" transform="translate(-923.4 -82.13)">
      <path class="cls-1" d="M1547.51,308a5.32,5.32,0,0,0,5.44-3.57c1.1-3.27,2.4-6.55,3.7-10.09h-83.16c0-29.58,0-57.32,0-67.75h74A5.32,5.32,0,0,0,1553,223c1.1-3.28,2.4-6.55,3.7-10.09H1450.41v0h-2.28c1.28,1.13,6.79,6.26,6.82,13.91v0q0,23.24,0,46.45,0,7.9,0,15.81,0,15.29,0,30.58v5.09h0v71.38h97.75a5.32,5.32,0,0,0,5.44-3.57c1.1-3.27,2.4-6.55,3.7-10.09h-88.29V308Z"/>
    </clipPath>
    <linearGradient id="linear-gradient-22" x1="498.36" y1="64.28" x2="908.02" y2="607.95" xlink:href="#linear-gradient"/>
  </defs>
  <title>HHM PURE LOGO</title>
  <g>
    <g class="cls-3">
      <rect class="cls-4" x="2.69" y="105.31" width="329.93" height="410.73"/>
    </g>
    <g class="cls-5">
      <rect class="cls-6" x="328.44" y="105.31" width="329.93" height="410.73"/>
    </g>
    <g>
      <circle class="cls-7" cx="284.92" cy="237.15" r="6.77"/>
      <circle class="cls-8" cx="284.92" cy="212.14" r="6.77"/>
      <circle class="cls-9" cx="284.92" cy="187.12" r="6.77"/>
      <circle class="cls-10" cx="284.92" cy="162.11" r="6.77"/>
      <circle class="cls-11" cx="284.92" cy="137.1" r="6.77"/>
      <circle class="cls-12" cx="284.92" cy="112.08" r="6.77"/>
      <circle class="cls-13" cx="284.92" cy="87.07" r="6.77"/>
    </g>
    <g class="cls-14">
      <rect class="cls-15" x="175.37" y="93.84" width="329.93" height="410.73"/>
    </g>
    <g>
      <path class="cls-2" d="M1095.6,134.3v3.52a11.26,11.26,0,0,0-8.55-4.31h-.91a11.67,11.67,0,0,0-9.91,6.26,11.72,11.72,0,0,0-10.36-6.26H1065a11.3,11.3,0,0,0-8.55,4.31V134.3h-3.17v18.34h-18V134.3h-3.17v18.34h-18V134.3h-3.17v18.34H1014v3.17h-3.17v18.34H1014V155.81h18v18.34h3.17V155.81h18v18.34h3.17V145.23a8.56,8.56,0,0,1,8.55-8.55h.92a8.56,8.56,0,0,1,8.55,8.55v28.92h3.17V145.23a8.55,8.55,0,0,1,8.55-8.55h.91a8.55,8.55,0,0,1,8.55,8.55v28.92h3.17V134.3Zm-60.38,21.51h-3.17v-3.17h3.17Z" transform="translate(-923.4 -82.13)"/>
      <g class="cls-16">
        <rect class="cls-2" width="329.93" height="410.73"/>
      </g>
    </g>
    <g>
      <path class="cls-17" d="M1546.82,460.7a8.28,8.28,0,0,0,.39-3.17c0-2.94,0-5.89,0-8.84,0-.17,0-.34,0-.56h9.34v-1.39h-9.37c0-.25,0-.44,0-.64-.1-3.44.25-6.89-.26-10.35a86.68,86.68,0,0,1,13.17,1.44v-2.44H1543a2.51,2.51,0,0,1,.91,2.22c0,.17,0,.33,0,.5V459c0,1,0,2-1,2.75h18.85v-2.46A125,125,0,0,1,1546.82,460.7Z" transform="translate(-923.4 -82.13)"/>
      <path class="cls-18" d="M1521.09,437.14v22.09a2.85,2.85,0,0,1-.95,2.51c.84,0,1.52,0,2.21,0a1.83,1.83,0,0,0,1.8-1.48,10.17,10.17,0,0,0,.26-2.13c0-3.15,0-6.31,0-9.47v-.56h9.79v-1.42h-9.73a.87.87,0,0,1,0-.13c0-.17,0-.33,0-.5-.12-3.42.27-6.86-.27-10.29a97.29,97.29,0,0,1,14,1.43v-2.43h-18A2.69,2.69,0,0,1,1521.09,437.14Z" transform="translate(-923.4 -82.13)"/>
      <path class="cls-19" d="M1490.05,458q0-9.81,0-19.62a10.71,10.71,0,0,0-.14-1.79,1.9,1.9,0,0,0-1.4-1.79,20.39,20.39,0,0,0-2.6-.17l0,.13a2.48,2.48,0,0,1,.84,2.17q0,11.08,0,22.18a2.81,2.81,0,0,1-1,2.58h16.89v-2.47a96.26,96.26,0,0,1-12.84,1.43C1489.91,459.78,1490.05,458.91,1490.05,458Z" transform="translate(-923.4 -82.13)"/>
      <path class="cls-20" d="M1511.31,438.53c0-.54,0-1.08-.09-1.62-.12-1.19-.72-2-1.71-2.13a22,22,0,0,0-2.45,0,2.69,2.69,0,0,1,.91,2.46c0,.27,0,.54,0,.81,0,6.66,0,13.32,0,20a11.74,11.74,0,0,0,.21,2.13,1.78,1.78,0,0,0,1.08,1.4,7.1,7.1,0,0,0,2.87.16,2.73,2.73,0,0,1-.84-2.26Q1511.32,449,1511.31,438.53Z" transform="translate(-923.4 -82.13)"/>
      <path class="cls-21" d="M1420.55,450.77q-3-7.86-6-15.73a.46.46,0,0,0-.51-.36c-1.19,0-2.37,0-3.55,0l-.44,0a1.86,1.86,0,0,1,.14,2q-4.07,11.14-8.12,22.28l-1,2.7c.76,0,1.46,0,2.16,0a.55.55,0,0,0,.66-.47c1-3,2-5.9,2.91-8.86a.47.47,0,0,1,.54-.38h9.61a.53.53,0,0,1,.6.42c1,2.62,2,5.23,3,7.85a1.75,1.75,0,0,0,1.35,1.31c1.07.13,2.15.12,3.21.17a21.75,21.75,0,0,1-1.11-2.12C1422.78,456.7,1421.68,453.73,1420.55,450.77Zm-13.14-.19,4.36-13.13.1,0,4.93,13.15Z" transform="translate(-923.4 -82.13)"/>
      <path class="cls-22" d="M1397.39,434.7c-.1,0-.24.16-.28.27-.16.42-.29.85-.43,1.27L1389.45,458c-.11.33-.22.65-.37,1.07-.1-.23-.16-.37-.21-.5q-2.07-5.51-4.13-11l-4.26-11.33a1.85,1.85,0,0,0-1.65-1.33c-1-.06-1.94,0-3,0a6.29,6.29,0,0,1,1.4,2.51c.11.34.24.68.37,1l8.8,23a.47.47,0,0,0,.53.35h3.54a4.28,4.28,0,0,0,.43,0,1.89,1.89,0,0,1-.14-2.05q3.93-10.75,7.85-21.52c.41-1.12.81-2.24,1.24-3.42C1399,434.69,1398.19,434.68,1397.39,434.7Z" transform="translate(-923.4 -82.13)"/>
      <path class="cls-23" d="M1313.65,460.72c.08-1,.21-1.94.22-2.85,0-3.06,0-6.11,0-9.16,0-.6,0-.6.62-.6h8.75V446.7h-9.37v-.56c0-2.55,0-5.09,0-7.64a6.69,6.69,0,0,0-.42-2.84c2.3.17,4.52.29,6.72.53s4.41.6,6.64.9v-2.37h-17.19a2.54,2.54,0,0,1,.91,2.26q0,11.07,0,22.14a2.81,2.81,0,0,1-.94,2.57h18.82v-2.4c-2.51.3-5,.64-7.43.87S1316.05,460.54,1313.65,460.72Z" transform="translate(-923.4 -82.13)"/>
      <path class="cls-24" d="M1358.93,456.67v-8.58h9.36V446.7h-9.36v-.62c-.11-3.44.26-6.89-.28-10.36a86.94,86.94,0,0,1,13.19,1.44v-2.44h-17.18a2.47,2.47,0,0,1,.92,2.19v22.54a2.53,2.53,0,0,1-.92,2.23h18.81v-2.45a124.12,124.12,0,0,1-14.92,1.44A11.61,11.61,0,0,0,1358.93,456.67Z" transform="translate(-923.4 -82.13)"/>
      <path class="cls-25" d="M1455.2,457.52c0-2.95,0-5.9,0-8.84v-.58h9.4v-1.39H1464c-2.75,0-5.51,0-8.26,0-.44,0-.58-.08-.58-.56,0-2.29,0-4.58,0-6.86a9.12,9.12,0,0,0-.38-3.58,88.11,88.11,0,0,1,13.3,1.43v-2.43H1451a2.62,2.62,0,0,1,.92,2.34v22.58a2.42,2.42,0,0,1-.78,1.93s0,.08,0,.15h18.23c.09,0,.2,0,.27,0s.21-.13.22-.21c0-.74,0-1.49,0-2.27a125.34,125.34,0,0,1-15,1.44A7.81,7.81,0,0,0,1455.2,457.52Z" transform="translate(-923.4 -82.13)"/>
      <path class="cls-26" d="M1422.54,437.14l.42-.07a58.6,58.6,0,0,1,8.55-1.28,1,1,0,0,1,1.29.83,6.22,6.22,0,0,1,.26,1.71q0,9.72,0,19.44a13.73,13.73,0,0,0,.09,1.7,2.29,2.29,0,0,0,1.2,2,6.92,6.92,0,0,0,2.87.18,2.78,2.78,0,0,1-.84-2.32q0-9.69,0-19.39c0-.36,0-.72,0-1.08a3.77,3.77,0,0,0-1.58-3.08s0-.07,0-.13a58.78,58.78,0,0,1,12.26,1.47v-2.44h-24.5Z" transform="translate(-923.4 -82.13)"/>
      <path class="cls-27" d="M1337.66,458.42q0-10.19,0-20.38a7.53,7.53,0,0,0-.22-1.77,1.77,1.77,0,0,0-1.57-1.52,24.18,24.18,0,0,0-2.42,0,2.74,2.74,0,0,1,.89,2.37q0,11.16,0,22.32a2.62,2.62,0,0,1-.93,2.27h16.88v-2.46a96.66,96.66,0,0,1-12.88,1.43A21.87,21.87,0,0,0,1337.66,458.42Z" transform="translate(-923.4 -82.13)"/>
    </g>
    <g class="cls-28">
      <rect class="cls-29" x="508.44" y="91.22" width="329.93" height="410.73"/>
    </g>
  </g>
</svg>
