<svg id="Layer_1" data-name="Layer 1" xmlns="http://www.w3.org/2000/svg" viewBox="0 0 442.64 268.49">
  <defs>
    <style>
      .cls-1 {
        fill: #009e99;
      }
    </style>
  </defs>
  <title>HHM PURE LOGO SVG</title>
  <g>
    <path class="cls-1" d="M626.29,167.38v17.73c-10.77-13-26.07-21.72-43-21.72h-4.63c-19.88,0-38.68,12-49.86,31.51a59.13,59.13,0,0,0-52.18-31.51H472c-15.94,0-31.66,8-43,21.72V167.38H413v92.33h-90.7V167.38h-16v92.33H215.6V167.38h-16v92.33h16v16h-16V368h16V275.68h90.69V368h16V275.68H413V368h16V222.4a43.09,43.09,0,0,1,43-43h4.62a43.09,43.09,0,0,1,43,43V368h16V222.4a43.08,43.08,0,0,1,43-43h4.63a43.08,43.08,0,0,1,43,43V368h16V167.38Zm-304,108.3h-16v-16h16Z" transform="translate(-199.63 -163.39)"/>
    <path class="cls-1" d="M516.61,403.15c-3.35-2.8-7.29-3.49-11.49-3a12.9,12.9,0,0,0-7.67,3.63c-3.35,3.27-4.59,7.39-4.73,12.58.11.82.22,2.27.51,3.69,1.38,6.66,6.16,11.13,12.81,11.71,5.72.5,10.33-1.64,13.4-6.61,2.48-4,2.92-8.4,2.16-13A14.43,14.43,0,0,0,516.61,403.15Zm-2.12,23.53a8.39,8.39,0,0,1-5.73,3.8,8.23,8.23,0,0,1-8.26-3.4,15.93,15.93,0,0,1-3-8.24,22.51,22.51,0,0,1,1.19-10.91,10.24,10.24,0,0,1,5-5.84,8.56,8.56,0,0,1,10.68,2.68c2.41,3.29,3.07,7.09,3.15,11.05C517.37,419.69,516.74,423.41,514.49,426.68Z" transform="translate(-199.63 -163.39)"/>
    <path class="cls-1" d="M527.05,403q.06,13,0,26a11.61,11.61,0,0,1-.61,2.44c.58,0,1.36,0,2.13,0a2.08,2.08,0,0,0,2-1.66,11.38,11.38,0,0,0,.3-2.59c0-3.44,0-6.88,0-10.31,0-.31,0-.62,0-1H542v-1.65h-11.3V401.49l15.8,1.59v-2.57H526.42A10.78,10.78,0,0,1,527.05,403Z" transform="translate(-199.63 -163.39)"/>
    <path class="cls-1" d="M625.7,426.58c0-3.26,0-6.52,0-9.79,0-.3,0-.61,0-1h10.66v-1.63H625.76c-.25-4.23.27-8.36-.37-12.69l15.08,1.61v-2.61H620.85c1.17,1,1.09,2.19,1.09,3.35q0,12.06,0,24.12c0,1.19.06,2.39-1,3.35h21.31v-2.73a144.33,144.33,0,0,1-16.77,1.58C625.57,428.89,625.69,427.73,625.7,426.58Z" transform="translate(-199.63 -163.39)"/>
    <path class="cls-1" d="M598,403.64V428.2a3.75,3.75,0,0,1-1,3.14c1,0,1.8.07,2.6,0a1.91,1.91,0,0,0,1.8-1.43,12,12,0,0,0,.37-2.65c0-3.5,0-7,0-10.49v-1h11.19v-1.61H601.79c-.26-4.23.27-8.36-.37-12.68l16,1.59v-2.58H596.9A3.65,3.65,0,0,1,598,403.64Z" transform="translate(-199.63 -163.39)"/>
    <path class="cls-1" d="M563.77,427.12q0-11.22,0-22.45a12.08,12.08,0,0,0-.17-2.08,2.34,2.34,0,0,0-2.29-2.13c-.72,0-1.45,0-2.46,0a3.25,3.25,0,0,1,1.12,2.86q0,12.54,0,25.08a3.59,3.59,0,0,1-1,2.94H578.2v-2.78a113.71,113.71,0,0,1-14.69,1.6C563.61,429.09,563.77,428.11,563.77,427.12Z" transform="translate(-199.63 -163.39)"/>
    <path class="cls-1" d="M588,428.74q0-11.92,0-23.86a12.19,12.19,0,0,0-.19-2.34,2.18,2.18,0,0,0-1.81-2c-.87-.12-1.76-.09-2.63-.14l-.12.19c1,.8.94,1.89.94,3q0,11.71,0,23.43a13,13,0,0,0,.18,2.25,2.29,2.29,0,0,0,2.13,2.09c.77.06,1.56,0,2.6,0A3,3,0,0,1,588,428.74Z" transform="translate(-199.63 -163.39)"/>
    <path class="cls-1" d="M423.32,401.59v-1.08h-2.87c.21,9.18.42,18.3.63,27.41a11.88,11.88,0,0,1-1.43-1.91q-8-12.56-16-25.1c-.12-.18-.31-.44-.48-.44-1.4,0-2.81,0-4.41,0a5.76,5.76,0,0,1,1,4.05v26.81h2.88c-.21-8.53-.42-17-.63-25.49l.18,0c.09.11.18.22.26.34,5,7.88,10.08,15.73,15,23.64a2.76,2.76,0,0,0,3,1.62,29,29,0,0,1,3.47,0,17.8,17.8,0,0,1-.57-3.12C423.32,419.36,423.33,410.48,423.32,401.59Z" transform="translate(-199.63 -163.39)"/>
    <path class="cls-1" d="M322.54,416.2c-2.26-1.11-4.68-1.93-7-3-3.1-1.5-4.35-3.75-3.95-7a5.4,5.4,0,0,1,3.37-4.73,5.34,5.34,0,0,1,5.83.77,11.06,11.06,0,0,1,2.28,2.94c.79,1.47,1.32,3.08,2,4.71a2.78,2.78,0,0,0,.27-.21c2.73-2.65,1.92-6.8-1.69-8.5a14.2,14.2,0,0,0-9.24-.81,8.15,8.15,0,0,0-6.8,6.86c-.62,3.31.76,6.23,4.11,8.26,1.73,1.05,3.66,1.76,5.47,2.69a33.7,33.7,0,0,1,5.23,2.92,5.31,5.31,0,0,1-1.32,9.13,8.32,8.32,0,0,1-9.95-2.68,49.51,49.51,0,0,1-3.2-5.47c-.23-.4-.4-.84-.66-1.41-.24.62-.41,1.05-.55,1.49-1.43,4.37.26,7.59,4.67,8.94a19.45,19.45,0,0,0,7.08.7,14.23,14.23,0,0,0,6.81-1.92,7.15,7.15,0,0,0,1.26-11A16.55,16.55,0,0,0,322.54,416.2Z" transform="translate(-199.63 -163.39)"/>
    <path class="cls-1" d="M339.16,405a8.39,8.39,0,0,1,12.32-1.87,14.36,14.36,0,0,1,4.51,7.51c.18.66.31,1.33.47,2a5.89,5.89,0,0,0,2-4.13,8.21,8.21,0,0,0-5.08-7.41,15.6,15.6,0,0,0-8-1.1,13.94,13.94,0,0,0-12,8.58,19.09,19.09,0,0,0-1.15,11.05,14.58,14.58,0,0,0,3.4,7.53c4.05,4.6,12.35,6.06,17.77,3.17a11.52,11.52,0,0,0,5-4.91l-1.95-1.7a8.66,8.66,0,0,1-.52.8,34.67,34.67,0,0,1-3.21,3.9,7.59,7.59,0,0,1-8,1.69c-3.25-1.07-5.21-3.49-6.6-6.46a19.69,19.69,0,0,1-1.54-10.41A17.17,17.17,0,0,1,339.16,405Z" transform="translate(-199.63 -163.39)"/>
    <path class="cls-1" d="M435.56,405a8.39,8.39,0,0,1,12.2-1.87,12.82,12.82,0,0,1,3.82,5.33c.53,1.37.89,2.81,1.35,4.29a6.21,6.21,0,0,0,1.83-4.17,8.16,8.16,0,0,0-5.1-7.4,15.75,15.75,0,0,0-8.22-1.06,13.9,13.9,0,0,0-11.85,8.69,18.92,18.92,0,0,0-.8,12.33c1.31,5.28,4.56,8.83,9.94,10.17,4.1,1,8.09.88,11.81-1.38a10.66,10.66,0,0,0,4.1-4.44l-1.78-1.51a53.2,53.2,0,0,1-4,4.64,7.52,7.52,0,0,1-7.88,1.6c-3.23-1.06-5.18-3.44-6.57-6.37a19.53,19.53,0,0,1-1.59-10.49A16.93,16.93,0,0,1,435.56,405Z" transform="translate(-199.63 -163.39)"/>
    <path class="cls-1" d="M379.39,426.66c0-3.29,0-6.59,0-9.88,0-.3,0-.61.06-1H390.1v-1.59H379.4c0-1.85,0-3.57,0-5.29,0-2.4-.08-4.8-.13-7.4l14.88,1.59v-2.62H374.79a4,4,0,0,1,.79,3.1q0,12.45,0,24.9a3.26,3.26,0,0,1-1,2.82H396v-2.72a144.56,144.56,0,0,1-16.81,1.57C379.26,428.91,379.38,427.78,379.39,426.66Z" transform="translate(-199.63 -163.39)"/>
    <path class="cls-1" d="M463.88,415.78h10.78v-1.57H463.85V401.5l14.84,1.59V400.5H459.16a3.56,3.56,0,0,1,1,3q0,12.46,0,24.91a3.54,3.54,0,0,1-1,2.92h21.37v-2.72a145.21,145.21,0,0,1-16.69,1.57Z" transform="translate(-199.63 -163.39)"/>
    <path class="cls-1" d="M367,405.21a18.41,18.41,0,0,0-.12-2.35,2.47,2.47,0,0,0-2.76-2.42h-2a3.62,3.62,0,0,1,1.08,3q0,11.7,0,23.42c0,.55,0,1.1,0,1.65.14,1.72.88,2.73,2.17,2.86.79.08,1.61,0,2.59,0a3.75,3.75,0,0,1-1-3.15Q367,416.7,367,405.21Z" transform="translate(-199.63 -163.39)"/>
  </g>
</svg>
